<svg width="150" height="140" viewBox="0 0 150 140" fill="none" xmlns="http://www.w3.org/2000/svg">
<g clip-path="url(#clip0_5_68)">
<path d="M0.00994478 99.8007C0.0205786 99.8558 0.0373475 99.9094 0.0599374 99.9607C0.069936 99.9907 0.0799345 100.031 0.089933 100.061L11.4983 119.818L11.5283 119.848C11.5483 119.878 11.5682 119.908 11.5982 119.948C11.6368 119.99 11.6805 120.027 11.7282 120.058C11.7582 120.078 11.7782 120.108 11.8082 120.128C11.8199 120.136 11.8341 120.139 11.8482 120.138C11.9614 120.201 12.0885 120.235 12.2182 120.238H57.3515L68.5199 139.575L68.5499 139.605C68.5699 139.635 68.5899 139.665 68.6199 139.705C68.6585 139.747 68.7021 139.784 68.7499 139.815C68.7799 139.835 68.7998 139.865 68.8298 139.885C68.8416 139.893 68.8557 139.896 68.8698 139.895C68.983 139.958 69.1101 139.992 69.2398 139.995H137.68C137.813 139.993 137.943 139.958 138.06 139.895L138.15 139.835C138.235 139.778 138.309 139.707 138.37 139.625C138.38 139.605 138.41 139.595 138.42 139.575L149.828 119.818C149.838 119.798 149.838 119.788 149.848 119.768C149.866 119.736 149.879 119.703 149.888 119.668C149.898 119.628 149.908 119.598 149.918 119.558C149.926 119.522 149.93 119.485 149.928 119.448C149.928 119.428 149.938 119.418 149.938 119.398C149.938 119.378 149.928 119.368 149.928 119.348C149.928 119.308 149.918 119.278 149.918 119.238C149.918 119.198 149.898 119.168 149.888 119.128C149.876 119.094 149.863 119.061 149.848 119.028C149.838 119.008 149.838 118.998 149.828 118.978L127.261 79.8937L138.42 60.5565C138.43 60.5365 138.43 60.5265 138.44 60.5065C138.457 60.475 138.471 60.4414 138.48 60.4065C138.49 60.3665 138.5 60.3365 138.51 60.2965C138.518 60.2605 138.521 60.2235 138.52 60.1865C138.52 60.1665 138.53 60.1565 138.53 60.1365C138.53 60.1166 138.52 60.1066 138.52 60.0866C138.52 60.0466 138.51 60.0166 138.51 59.9766C138.51 59.9366 138.49 59.9066 138.48 59.8666C138.468 59.8326 138.455 59.7992 138.44 59.7666C138.43 59.7466 138.43 59.7366 138.42 59.7166L104.215 0.435308C104.195 0.405312 104.165 0.385315 104.145 0.35532C104.11 0.309945 104.074 0.266548 104.035 0.225339C103.994 0.192006 103.95 0.161919 103.905 0.135352C103.861 0.106117 103.814 0.0825943 103.765 0.0653622C103.706 0.0462327 103.646 0.0328384 103.585 0.0253681C103.555 0.0253681 103.525 0.00537109 103.485 0.00537109H80.6681C80.6481 0.00537109 80.6381 0.0153696 80.6181 0.0153696C80.5781 0.0153696 80.5481 0.0253681 80.5081 0.0253681L80.3882 0.0553637C80.3582 0.0653622 80.3182 0.0853594 80.2882 0.0953579C80.2582 0.105356 80.2582 0.105356 80.2382 0.115355C80.2268 0.127705 80.2132 0.137871 80.1982 0.145351C80.1658 0.1655 80.1357 0.188956 80.1082 0.21534C80.0791 0.239424 80.0523 0.266206 80.0282 0.295329C80.0082 0.325324 79.9782 0.35532 79.9582 0.385315C79.9459 0.396709 79.9357 0.410263 79.9282 0.425309L57.3615 39.5196H35.0448C35.0248 39.5196 35.0148 39.5296 34.9948 39.5296C34.9548 39.5296 34.9248 39.5396 34.8848 39.5396C34.8448 39.5396 34.8048 39.5596 34.7748 39.5696C34.7408 39.5812 34.7075 39.5945 34.6749 39.6096C34.6549 39.6196 34.6449 39.6196 34.6249 39.6296C34.6049 39.6396 34.6049 39.6496 34.5849 39.6596C34.5525 39.6797 34.5224 39.7032 34.4949 39.7295C34.4658 39.7536 34.439 39.7804 34.4149 39.8095C34.3949 39.8395 34.3649 39.8695 34.3449 39.8995C34.3326 39.9109 34.3224 39.9245 34.3149 39.9395L0.0999316 99.2208C0.0853924 99.2526 0.0752991 99.2863 0.069936 99.3208C0.0487471 99.3726 0.0320221 99.4261 0.0199433 99.4808C0.00407223 99.5325 -0.00269386 99.5867 -5.37512e-05 99.6408C-0.00170921 99.6943 0.00163817 99.7478 0.00994478 99.8007ZM102.995 1.70512L136.24 59.2867H115.383L82.1279 1.70512H102.995ZM114.403 98.8009H93.5362L115.373 60.9664H136.24L114.403 98.8009ZM80.6681 2.545L113.913 60.1265L92.0764 97.961L81.648 79.8837L92.8163 60.5465C92.8263 60.5265 92.8263 60.5165 92.8363 60.4965C92.8539 60.465 92.8673 60.4314 92.8763 60.3965C92.8863 60.3565 92.8963 60.3265 92.9063 60.2865C92.9146 60.2505 92.918 60.2135 92.9163 60.1765C92.9163 60.1565 92.9263 60.1465 92.9263 60.1265C92.9263 60.1066 92.9163 60.0966 92.9163 60.0766C92.9163 60.0366 92.9063 60.0066 92.9063 59.9666C92.9063 59.9266 92.8863 59.8966 92.8763 59.8566C92.8647 59.8226 92.8514 59.7892 92.8363 59.7566C92.8263 59.7366 92.8263 59.7266 92.8163 59.7066L81.398 39.9495C81.378 39.9195 81.348 39.8995 81.328 39.8695C81.2938 39.8241 81.2571 39.7808 81.218 39.7395C81.1771 39.7062 81.1336 39.6761 81.088 39.6496C81.0435 39.6223 80.9966 39.5988 80.9481 39.5796C80.8935 39.5599 80.836 39.5498 80.7781 39.5496C80.7481 39.5496 80.7081 39.5296 80.6781 39.5296H59.3212L80.6681 2.545ZM57.8615 41.2193H80.1882L90.6266 59.2867H46.9431L36.5046 41.2193H57.8615ZM35.0448 42.0592L45.4733 60.1265L12.2282 117.708L1.79968 99.6408L35.0448 42.0592ZM13.6979 118.548L46.9431 60.9664H90.6266L80.1882 79.0438H57.8615C57.8415 79.0438 57.8315 79.0538 57.8115 79.0538C57.7715 79.0538 57.7415 79.0638 57.7015 79.0638L57.5815 79.0938C57.5515 79.1038 57.5115 79.1238 57.4815 79.1338C57.4515 79.1438 57.4515 79.1438 57.4315 79.1538C57.4201 79.1661 57.4066 79.1763 57.3915 79.1838C57.3592 79.2039 57.329 79.2274 57.3015 79.2537C57.2724 79.2778 57.2456 79.3046 57.2215 79.3337C57.2015 79.3637 57.1716 79.3937 57.1516 79.4237C57.1416 79.4337 57.1216 79.4437 57.1216 79.4637L45.7132 99.2208C45.6987 99.2526 45.6886 99.2863 45.6832 99.3208C45.6621 99.3726 45.6453 99.4261 45.6332 99.4808C45.6246 99.5336 45.6213 99.5872 45.6233 99.6408C45.6216 99.6943 45.6249 99.7478 45.6332 99.8007C45.6439 99.8558 45.6606 99.9094 45.6832 99.9607C45.6932 99.9907 45.7032 100.031 45.7132 100.061L56.3917 118.548H13.6979ZM137.22 138.305H70.7296L81.158 120.238H147.648L137.22 138.305ZM69.2698 137.465L47.433 99.6408L57.8715 81.5634L79.7083 119.388L69.2698 137.465ZM147.648 118.548H81.158L59.3212 80.7235H80.1882L91.3565 100.061L91.3865 100.091C91.4064 100.126 91.4299 100.16 91.4565 100.191C91.4951 100.233 91.5388 100.27 91.5865 100.301C91.6165 100.321 91.6365 100.351 91.6665 100.371C91.6782 100.379 91.6924 100.382 91.7065 100.381C91.8197 100.444 91.9468 100.478 92.0764 100.481H114.893C115.026 100.478 115.156 100.444 115.273 100.381L115.363 100.321C115.448 100.264 115.522 100.193 115.583 100.111C115.593 100.091 115.623 100.081 115.633 100.061L126.311 81.5634L147.648 118.548Z" fill="white"/>
</g>
<defs>
<clipPath id="clip0_5_68">
<rect width="149.938" height="140" fill="white"/>
</clipPath>
</defs>
</svg>
