<svg width="150" height="140" fill="none" xmlns="http://www.w3.org/2000/svg"><g clip-path="url(#clip0_5_68)"><path d="M.01 99.8c.01.056.027.11.05.16.01.03.02.071.03.101l11.408 19.757.03.03c.02.03.04.06.07.1a.68.68 0 00.13.11c.03.02.05.05.08.07a.063.063 0 00.04.01c.113.063.24.097.37.1h45.134l11.168 19.337.03.03c.02.03.04.06.07.1a.677.677 0 00.13.11c.03.02.05.05.08.07a.063.063 0 00.04.01c.113.063.24.097.37.1h68.44a.828.828 0 00.38-.1l.09-.06a.896.896 0 00.22-.21c.01-.02.04-.03.05-.05l11.408-19.757c.01-.02.01-.03.02-.05a.41.41 0 00.04-.1l.03-.11a.407.407 0 00.01-.11c0-.02.01-.03.01-.05 0-.02-.01-.03-.01-.05 0-.04-.01-.07-.01-.11 0-.04-.02-.07-.03-.11a1.225 1.225 0 00-.04-.1c-.01-.02-.01-.03-.02-.05l-22.567-39.084 11.159-19.338c.01-.02.01-.03.02-.05a.447.447 0 00.04-.1l.03-.11a.45.45 0 00.01-.11c0-.02.01-.03.01-.05 0-.02-.01-.03-.01-.05 0-.04-.01-.07-.01-.11 0-.04-.02-.07-.03-.11a1.17 1.17 0 00-.04-.1c-.01-.02-.01-.03-.02-.05L104.215.437c-.02-.03-.05-.05-.07-.08a1.684 1.684 0 00-.11-.13 1.064 1.064 0 00-.27-.16.961.961 0 00-.18-.04c-.03 0-.06-.02-.1-.02H80.668c-.02 0-.03.01-.05.01-.04 0-.07.01-.11.01l-.12.03c-.03.01-.07.03-.1.04-.03.01-.03.01-.05.02a.139.139 0 01-.04.03.548.548 0 00-.09.07.602.602 0 00-.08.08c-.02.03-.05.06-.07.09a.14.14 0 00-.03.04L57.362 39.52H35.044c-.02 0-.03.01-.05.01-.04 0-.07.01-.11.01-.04 0-.08.02-.11.03a1.025 1.025 0 00-.1.04c-.02.01-.03.01-.05.02-.02.01-.02.02-.04.03a.55.55 0 00-.09.07.605.605 0 00-.08.08c-.02.03-.05.06-.07.09a.14.14 0 00-.03.04L.1 99.22a.382.382 0 00-.03.1.982.982 0 00-.05.16.468.468 0 00-.02.16.86.86 0 00.01.16zM102.995 1.706l33.245 57.582h-20.857L82.128 1.705h20.867zm11.408 97.096H93.536l21.837-37.835h20.867l-21.837 37.835zM80.668 2.545l33.245 57.581-21.837 37.835-10.428-18.077 11.168-19.337c.01-.02.01-.03.02-.05a.42.42 0 00.04-.1l.03-.11a.407.407 0 00.01-.11c0-.02.01-.03.01-.05 0-.02-.01-.03-.01-.05 0-.04-.01-.07-.01-.11 0-.04-.02-.07-.03-.11a1.026 1.026 0 00-.04-.1c-.01-.02-.01-.03-.02-.05L81.398 39.949c-.02-.03-.05-.05-.07-.08a1.514 1.514 0 00-.11-.13 1.009 1.009 0 00-.27-.16.506.506 0 00-.17-.03c-.03 0-.07-.02-.1-.02H59.321L80.668 2.546zM57.861 41.219h22.327l10.439 18.068H46.943L36.505 41.219H57.86zm-22.816.84l10.428 18.068-33.245 57.581L1.8 99.641l33.245-57.582zm-21.347 76.489l33.245-57.582h43.684L80.188 79.044H57.861c-.02 0-.03.01-.05.01-.04 0-.07.01-.11.01l-.12.03c-.03.01-.07.03-.1.04-.03.01-.03.01-.05.02a.139.139 0 01-.04.03.554.554 0 00-.09.07.605.605 0 00-.08.08c-.02.03-.05.06-.07.09-.01.01-.03.02-.03.04L45.714 99.22a.385.385 0 00-.03.1.992.992 0 00-.05.16.808.808 0 00-.01.16.856.856 0 00.01.16.76.76 0 00.05.16l.03.1 10.679 18.487H13.698zm123.522 19.757H70.73l10.428-18.067h66.49l-10.428 18.067zm-67.95-.84L47.433 99.641l10.438-18.078 21.837 37.825-10.438 18.077zm78.378-18.917h-66.49L59.321 80.723h20.867l11.168 19.338.03.03a.64.64 0 00.07.1.68.68 0 00.13.11c.03.02.05.05.08.07a.063.063 0 00.04.01.8.8 0 00.37.1h22.817a.84.84 0 00.38-.1l.09-.06a.896.896 0 00.22-.21c.01-.02.04-.03.05-.05l10.678-18.498 21.337 36.985z" fill="#fff"/></g><defs><clipPath id="clip0_5_68"><path fill="#fff" d="M0 0h149.938v140H0z"/></clipPath></defs></svg>