<svg width="150" height="140" viewBox="0 0 140 122" fill="none" xmlns="http://www.w3.org/2000/svg"><g clip-path="url(#clip0_5_77)"><path d="M.02 108.189a.854.854 0 00.05.15.318.318 0 00.03.09l7.278 12.618.03.03c.02.032.043.062.07.09.04.04.08.07.12.11.03.02.04.05.07.06a.063.063 0 00.04.01.835.835 0 00.35.09H131.89a.833.833 0 00.35-.09c.03-.02.05-.04.08-.06a.647.647 0 00.2-.2c.01-.02.03-.03.05-.05l7.288-12.618c.01-.01.01-.03.02-.04a.292.292 0 00.04-.1l.03-.1a.37.37 0 00.01-.1c0-.02.01-.03.01-.05 0-.02-.01-.03-.01-.05 0-.02-.01-.07-.01-.1s-.02-.07-.03-.1a.772.772 0 00-.04-.1c-.01-.01-.01-.03-.02-.04L77.947.391a.438.438 0 00-.06-.07.625.625 0 00-.11-.12 1.547 1.547 0 00-.25-.15.758.758 0 00-.16-.03c-.03 0-.06-.02-.1-.02H62.702c-.02 0-.03.01-.05.01-.02 0-.07.01-.1.01l-.11.03a.688.688 0 00-.1.04.06.06 0 01-.04.01.139.139 0 01-.04.03.555.555 0 00-.08.06.602.602 0 00-.08.08c-.02.03-.04.05-.06.08a.137.137 0 00-.03.04L.09 107.649a.329.329 0 00-.03.09.91.91 0 00-.05.15.76.76 0 00-.01.15c.01.05.01.1.02.15zM76.817 1.57l61.013 105.68H31.281l6.378-11.037h79.686a.68.68 0 00.35-.1c.01-.01.03 0 .04-.01a.408.408 0 00.07-.06 1.09 1.09 0 00.12-.11.828.828 0 00.08-.12.302.302 0 00.06-.13.4.4 0 00.03-.16c0-.03.02-.06.02-.1 0-.02-.01-.03-.01-.05a.767.767 0 00-.03-.15.88.88 0 00-.05-.15c-.01-.01-.01-.03-.02-.04L64.051 1.57h12.766zm54.634 118.297H9.427l53.275-92.282 6.378 11.038-39.849 69.016a.06.06 0 00-.01.04.92.92 0 00-.05.15.797.797 0 00-.03.15c0 .02-.01.03-.01.05 0 .02.02.06.02.1a.894.894 0 00.03.16c.02.05.04.09.06.13.025.042.052.082.08.12.04.04.08.07.12.11.03.02.04.05.07.06.01.01.03 0 .04.01a.827.827 0 00.35.1H137.81l-6.358 11.048zM101.41 94.642H38.559l31.43-54.44 31.421 54.44zM62.702 2.36l53.274 92.282H103.23L63.391 25.626a.137.137 0 01-.03-.04c-.03-.04-.07-.08-.1-.12a.581.581 0 00-.12-.1.136.136 0 00-.04-.03.314.314 0 00-.09-.03.88.88 0 00-.15-.05 1.077 1.077 0 00-.3 0 .88.88 0 00-.15.05.314.314 0 00-.09.03.139.139 0 01-.04.03c-.04.03-.08.07-.12.1a.378.378 0 00-.1.12.138.138 0 00-.03.04L8.079 119.087 1.7 108.049 62.702 2.36z" fill="#fff"/></g><defs><clipPath id="clip0_5_77"><path fill="#fff" d="M0 0h139.969v121.438H0z"/></clipPath></defs></svg>