<svg width="150" height="140" viewBox="0 0 122 140" fill="none" xmlns="http://www.w3.org/2000/svg"><g clip-path="url(#clip0_5_86)"><path d="M121.219 34.995l-20.697-11.948-19.206 11.088V11.95L60.609 0 39.913 11.95v22.176L20.706 23.037 0 34.995V58.9l19.207 11.09L0 81.078v23.906l20.696 11.948 19.207-11.088v22.176l20.696 11.948 20.697-11.948v-22.176l19.206 11.088 20.717-11.948V81.078l-19.207-11.089 19.207-11.088V34.995zm-20.697-10.228l18.467 10.658L81.436 57.17l-.12-21.316 19.206-11.088zM79.826 36.715l.12 21.326L61.359 68.81V24.337l18.467-10.659v23.037zM41.403 13.678L59.86 24.337V68.81L41.403 58.12V13.678zM20.696 24.767l19.207 11.088V57.24L2.24 35.425l18.456-10.658zM1.49 58.04V36.725L39.163 58.54 20.706 69.13 1.49 58.041zm0 46.083V82.807l18.457 10.659v21.316L1.49 104.124zm.75-22.616l18.836-10.869L40.663 59.4 59.12 70.09 20.706 92.166 2.24 81.508zm57.62 56.311L41.403 127.16v-22.176L59.86 94.326v43.493zm-18.457-34.555l-1.12.65-18.837 10.878V93.476L59.86 71.399v21.207l-18.457 10.658zm19.206-80.217L42.153 12.388 60.609 1.73l18.457 10.66L60.61 23.047zM79.816 127.16l-18.457 10.659V94.326l18.457 10.658v22.176zm19.957-12.378l-18.837-10.878-1.12-.65-18.457-10.658V71.389l38.414 22.077v21.316zm19.956-10.658l-18.457 10.658V93.286l18.457-10.489v21.327zm-.76-22.616l-18.607 10.578-38.263-21.987 18.587-10.768L99.033 69.99l.62.36.37.22.119.07 18.827 10.869zm.76-23.467L100.522 69.13 82.186 58.471l37.553-21.746V58.04h-.01z" fill="#fff"/></g><defs><clipPath id="clip0_5_86"><path fill="#fff" d="M0 0h121.219v139.969H0z"/></clipPath></defs></svg>