<svg width="150" height="140" viewBox="0 0 140 126" fill="none" xmlns="http://www.w3.org/2000/svg"><g clip-path="url(#clip0_5_96)"><path d="M114.515.006L88.341 15.003l.05 39.041-36.433-39.55L25.255.015 0 14.293v81.192l25.524 14.247 26.194-14.497v-6.658l35.573 37.291 52.678-30.413V14.293L114.515.006zM90.79 17.802l24.664 14.147v51.469L90.83 56.694l-.04-38.892zm-88.34-.7L24.804 30.01 86.42 96.215l.02 25.194-62.056-65.065v49.939L2.449 94.055V17.103zm46.82 69.125v7.579l-22.556 12.477v-43.88L49.41 86.227h-.14zm88.369 7.838L88.87 122.21l-.02-26.944L26.334 28.1 3.68 15.023 25.294 2.796 50.47 16.443l67.435 73.194V30.54L92.02 15.703l22.565-12.917 23.054 12.917v78.362z" fill="#fff"/></g><defs><clipPath id="clip0_5_96"><path fill="#fff" d="M0 0h139.969v125.875H0z"/></clipPath></defs></svg>