<svg width="150" height="140" viewBox="0 0 139 142" fill="none" xmlns="http://www.w3.org/2000/svg"><g clip-path="url(#clip0_5_105)"><path clip-rule="evenodd" d="M137.733 49.821A70.04 70.04 0 0027.168 16.302a70.037 70.037 0 1092.386 105.095h.03l.57-.569a14.723 14.723 0 00-20.819-20.819v-.01A40.553 40.553 0 0136.41 49.795a40.555 40.555 0 0161.225-9.334l1.97 1.98a4.964 4.964 0 01-7.02 7.02l-2.73-2.74-.1.1a.81.81 0 00-.21-.32 30.741 30.741 0 101.7 47.628 4.975 4.975 0 00-.04-6.68c-1.97-2.13-5.34-1.57-7.01-.2a20.92 20.92 0 11-.56-32.898l.03-.02 1.77 1.77a14.722 14.722 0 0020.82-20.82l-.22-.22a.89.89 0 00-.22-.42 50.37 50.37 0 00-77.081 8.986 50.366 50.366 0 0077.871 63.021.848.848 0 01.05-.1 4.947 4.947 0 017.349 6.57 60.156 60.156 0 01-71.539 10.867 60.162 60.162 0 01-30.232-65.742 60.158 60.158 0 01115.371-7.632c.73 2.03 2.439 4.99 5.929 4.77a4.37 4.37 0 004.2-5.56z" stroke="#fff" stroke-width="2" stroke-miterlimit="10" stroke-linecap="round" stroke-linejoin="round"/></g><defs><clipPath id="clip0_5_105"><path fill="#fff" d="M0 0h138.922v142H0z"/></clipPath></defs></svg>