<svg width="150" height="140" viewBox="0 0 140 122" fill="none" xmlns="http://www.w3.org/2000/svg"><g clip-path="url(#clip0_5_114)"><path d="M116.539 101.368c.01-.01.01-.03.02-.04a.292.292 0 00.04-.1l.03-.1a.334.334 0 00.01-.1c0-.019.01-.029.01-.049s-.01-.03-.01-.05c0-.02-.01-.07-.01-.1s-.02-.07-.03-.1a.673.673 0 00-.04-.1c-.01-.01-.01-.03-.02-.04l-11.216-19.425h22.422a.827.827 0 00.35-.09c.03-.02.05-.04.08-.06a.636.636 0 00.2-.2c.01-.02.03-.03.05-.05l11.356-19.665c.01-.01.01-.03.02-.04a.324.324 0 00.04-.1l.03-.1a.374.374 0 00.01-.1c0-.02.01-.03.01-.05 0-.02-.01-.03-.01-.05 0-.02-.01-.07-.01-.1s-.02-.07-.03-.1a.719.719 0 00-.04-.1c-.01-.01-.01-.03-.02-.04l-11.356-19.665a.487.487 0 00-.06-.07.597.597 0 00-.11-.12 1.519 1.519 0 00-.13-.09.524.524 0 00-.13-.06.45.45 0 00-.16-.03c-.03 0-.06-.02-.09-.02h-22.422l11.216-19.425c.01-.01.01-.03.02-.04a.302.302 0 00.04-.1l.03-.1a.337.337 0 00.01-.1c0-.02.01-.03.01-.05 0-.02-.01-.03-.01-.05 0-.02-.01-.07-.01-.1s-.02-.07-.03-.1a.719.719 0 00-.04-.1c-.01-.01-.01-.03-.02-.04L105.193.394a.433.433 0 00-.06-.07 1.054 1.054 0 00-.1-.12 1.499 1.499 0 00-.13-.09.51.51 0 00-.13-.06.452.452 0 00-.16-.03c-.03 0-.06-.02-.09-.02H81.821c-.02 0-.03.01-.05.01-.02 0-.07.01-.1.01l-.11.03a.354.354 0 00-.09.04.06.06 0 01-.04.01l-.03.03a.55.55 0 00-.08.06.603.603 0 00-.08.08c-.02.03-.04.05-.06.08a.14.14 0 00-.03.04L69.935 19.82 58.72.394a.434.434 0 00-.06-.07 1.19 1.19 0 00-.11-.12.83.83 0 00-.12-.08.516.516 0 00-.13-.06.415.415 0 00-.16-.03c-.03 0-.06-.02-.09-.02H35.349c-.02 0-.03.01-.05.01-.02 0-.07.01-.1.01l-.11.03a.352.352 0 00-.09.04.06.06 0 01-.04.01.138.138 0 01-.04.03.55.55 0 00-.08.06.596.596 0 00-.08.08c-.02.03-.04.05-.06.08a.14.14 0 00-.03.04L23.322 20.07a.32.32 0 00-.03.09.88.88 0 00-.05.15c-.014.1-.014.2 0 .3a.88.88 0 00.05.15.32.32 0 00.03.09l11.216 19.425H12.116c-.02 0-.03.01-.05.01-.02 0-.07.01-.1.01l-.11.03a.349.349 0 00-.09.04c-.01.01-.03.01-.04.02l-.03.03a.549.549 0 00-.08.06.599.599 0 00-.08.08c-.02.03-.04.05-.06.08a.137.137 0 00-.03.04L.09 60.339a.318.318 0 00-.03.09.88.88 0 00-.05.15c-.013.1-.013.2 0 .3a.88.88 0 00.05.15.318.318 0 00.03.09l11.356 19.665.03.03c.02.032.044.062.07.09.04.04.08.07.12.11.03.02.04.05.07.06a.06.06 0 00.04.01.825.825 0 00.35.09h22.422l-11.206 19.425a.308.308 0 00-.03.09.852.852 0 00-.05.15 1.07 1.07 0 000 .299.852.852 0 00.05.15.308.308 0 00.03.09l11.346 19.665.03.03c.02.033.043.063.07.09.04.04.08.07.12.11.03.02.04.05.07.06a.057.057 0 00.04.01.806.806 0 00.35.09H58.07a.806.806 0 00.35-.09c.03-.02.05-.04.08-.06a.636.636 0 00.2-.2c.01-.02.03-.03.05-.05l11.215-19.425 11.216 19.425.03.03c.02.033.044.063.07.09.04.04.08.07.12.11.03.02.04.05.07.06a.057.057 0 00.04.01.806.806 0 00.35.09h22.702a.808.808 0 00.35-.09c.03-.02.05-.04.08-.06a.626.626 0 00.2-.2c.01-.02.03-.03.05-.05l11.296-19.655zm-12.486 18.486H83.161l10.446-18.096H114.5l-10.447 18.096zm-46.483 0H36.677l22.342-38.69h20.893l-22.342 38.69zm-44.135-40.27l10.447-18.095h44.674L58.109 79.584H13.435zm-1.36-36.97l10.447 18.095-10.446 18.095L1.629 60.71l10.447-18.096zm12.796-22.175L35.318 2.344l22.342 38.69-10.447 18.095-22.342-38.69zm56.94-18.085l10.446 18.095-22.332 38.69L59.48 41.044l22.332-38.69zm22.242-.79L114.5 19.659H93.607L83.161 1.564h20.892zm23.252 40.27l10.446 18.095H93.077L82.631 41.834h44.674zm-46.044.78l9.987 17.305H71.265l9.996-17.305zM68.556 59.919H48.573l9.986-17.305 9.997 17.305zm1.36 2.36l9.986 17.305H59.919l9.996-17.306zm1.359-.78h20.882l22.333 38.69H93.597l-22.322-38.69zm22.702 0h43.764l-10.446 18.095h-22.882L93.977 61.499zM82.63 40.254L93.617 21.23h20.893l-10.986 19.025H82.631zm-24.072-.78L36.677 1.564H57.57l11.446 19.815-10.457 18.095zM45.844 59.92H23.872L13.425 41.824h21.973l10.446 18.095zM57.2 81.164l-21.882 37.91-10.447-18.095 11.436-19.815H57.2zm24.061.78l10.987 19.025L81.8 119.064l-10.986-19.035L81.26 81.943z" fill="#fff"/></g><defs><clipPath id="clip0_5_114"><path fill="#fff" d="M0 0h139.891v121.438H0z"/></clipPath></defs></svg>